<?xml version="1.0" encoding="UTF-8" standalone="no"?>
<!-- Created with Inkscape (http://www.inkscape.org/) -->

<svg
   width="96.122482mm"
   height="29.912674mm"
   viewBox="0 0 96.122482 29.912674"
   version="1.1"
   id="svg5"
   xmlns="http://www.w3.org/2000/svg"
   xmlns:svg="http://www.w3.org/2000/svg">
  <defs
     id="defs2">
    <rect
       x="115.88807"
       y="441.47836"
       width="515.97784"
       height="257.52905"
       id="rect4129" />
  </defs>
  <g
     id="layer1"
     transform="translate(-12.696104,-124.36045)">
    <text
       xml:space="preserve"
       transform="matrix(0.26458333,0,0,0.26458333,-2.555171,3.2852199)"
       id="text4127"
       style="font-style:normal;font-variant:normal;font-weight:bold;font-stretch:normal;font-size:96px;font-family:'Leelawadee UI';-inkscape-font-specification:'Leelawadee UI Bold';white-space:pre;shape-inside:url(#rect4129);fill:#000000;fill-opacity:1;stroke:#000000;stroke-width:4;stroke-linecap:round;stroke-linejoin:round;stroke-dasharray:none;stroke-opacity:1"><tspan
         x="115.88867"
         y="527.95094"
         id="tspan228">GSLR</tspan></text>
    <path
       style="fill:#000000;fill-opacity:1;stroke:none;stroke-width:2.11667;stroke-linecap:round;stroke-linejoin:round"
       id="path6704"
       d="m 15.998191,154.2731 c 2.368926,-1.64326 5.128969,-2.6206 7.939474,-3.20371 1.363913,-0.28298 2.739445,-0.53776 4.127719,-0.65191 1.859002,-0.15287 3.729255,-0.0983 5.593882,-0.1475 12.752027,0.81333 25.50043,1.84679 38.277364,2.20822 11.24669,0.31815 25.58286,0.17448 36.88195,0.13 0,0 -0.61059,-0.44294 -0.61059,-0.44294 v 0 c -14.76024,0.15947 -22.05017,0.4295 -36.9941,-0.21858 -13.308322,-0.57715 -18.698548,-1.33717 -31.436145,-2.59936 -2.83863,-0.28128 -5.679094,-0.54373 -8.518639,-0.81559 -1.944621,0.009 -3.892815,-0.0921 -5.833861,0.0261 -1.43705,0.0875 -2.862948,0.32799 -4.278726,0.58941 -2.963627,0.54724 -5.787823,1.55599 -8.450415,2.95322 0,0 3.302087,2.17266 3.302087,2.17266 z" />
  </g>
</svg>
