<?xml version="1.0" encoding="UTF-8" standalone="no"?>
<!-- Created with Inkscape (http://www.inkscape.org/) -->

<svg
   width="97.939133mm"
   height="35.897125mm"
   viewBox="0 0 97.939132 35.897125"
   version="1.1"
   id="svg5"
   sodipodi:docname="GSLR_sapin.svg"
   inkscape:version="1.2.2 (732a01da63, 2022-12-09)"
   xml:space="preserve"
   xmlns:inkscape="http://www.inkscape.org/namespaces/inkscape"
   xmlns:sodipodi="http://sodipodi.sourceforge.net/DTD/sodipodi-0.dtd"
   xmlns="http://www.w3.org/2000/svg"
   xmlns:svg="http://www.w3.org/2000/svg"><sodipodi:namedview
     id="namedview139"
     pagecolor="#505050"
     bordercolor="#eeeeee"
     borderopacity="1"
     inkscape:showpageshadow="0"
     inkscape:pageopacity="0"
     inkscape:pagecheckerboard="0"
     inkscape:deskcolor="#505050"
     inkscape:document-units="mm"
     showgrid="false"
     inkscape:zoom="0.5522788"
     inkscape:cx="147.57039"
     inkscape:cy="219.09224"
     inkscape:window-width="1920"
     inkscape:window-height="1017"
     inkscape:window-x="-8"
     inkscape:window-y="-8"
     inkscape:window-maximized="1"
     inkscape:current-layer="svg5" /><defs
     id="defs2"><rect
       x="115.88807"
       y="441.47836"
       width="515.97784"
       height="257.52905"
       id="rect4129" /></defs><g
     id="g6970"
     transform="translate(-2.5831902e-6,-200.18076)"><path
       style="fill:#000000;fill-opacity:1;stroke:none;stroke-width:2.36996;stroke-linecap:round;stroke-linejoin:round"
       id="path6704"
       d="m 4.4158449,236.07786 c 2.6524017,-1.8399 5.0241095,-2.21558 8.1709321,-2.86847 1.527124,-0.31684 3.067258,-0.60211 4.621659,-0.72992 2.081458,-0.17116 4.175514,-0.11006 6.26327,-0.16515 14.277988,0.91066 11.064155,2.29861 19.805251,2.91647 20.225373,1.42962 54.662174,-1.31468 54.662174,-1.31468 l -1.72205,-0.51605 c 0,0 -35.291558,3.28433 -55.426115,0.63679 -3.577605,-0.47043 -6.916222,-2.12228 -10.468618,-2.75556 -3.144305,-0.56053 -6.34895,-0.73798 -9.538016,-0.91318 -2.174067,-0.11944 -4.358645,-0.10312 -6.531965,0.0292 -1.609014,0.098 -3.205541,0.36724 -4.790737,0.65994 -3.318267,0.61273 -6.4804183,1.74219 -9.4616273000977,3.30662 L 4.4158449,236.07789 Z"
       sodipodi:nodetypes="csccsccsssccccc" /><text
       xml:space="preserve"
       transform="matrix(0.22497973,0,0,0.22497973,-1.1834793,107.85843)"
       id="text4127"
       style="font-style:normal;font-variant:normal;font-weight:bold;font-stretch:normal;font-size:96px;font-family:'Leelawadee UI';-inkscape-font-specification:'Leelawadee UI Bold';letter-spacing:1.49494px;white-space:pre;shape-inside:url(#rect4129);display:inline;fill:#000000;fill-opacity:1;stroke:#000000;stroke-width:0.687802;stroke-linecap:round;stroke-linejoin:round;stroke-dasharray:none;stroke-opacity:1"><tspan
         x="115.88867"
         y="527.95094"
         id="tspan7033">GSLR</tspan></text><path
       style="fill:none;fill-opacity:0.703911;stroke:#000000;stroke-width:1.85208;stroke-linecap:butt;stroke-linejoin:miter;stroke-dasharray:none;stroke-opacity:1"
       d="m 22.935669,204.87878 c -1.235852,-0.97667 -1.284065,-1.43796 -1.999698,-2.6747 -1.333386,2.94673 -4.668922,6.56444 -7.159313,7.73571 1.387611,0.56918 2.826582,1.00481 4.857305,-0.0982 -1.815502,4.31107 -4.616846,6.03433 -7.45768,7.65394 2.217103,0.67707 4.42676,1.4808 6.770789,0 -1.499623,3.68442 -5.497193,6.48723 -9.1258451,9.42023 3.0972371,-0.50488 6.4978141,0.88607 9.1258451,-2.55132 l 0.09808,5.98885"
       id="path403"
       sodipodi:nodetypes="ccccccccc" /></g></svg>
