<?xml version="1.0" encoding="UTF-8" standalone="no"?>
<!-- Created with Inkscape (http://www.inkscape.org/) -->

<svg
   width="96.122482mm"
   height="29.912674mm"
   viewBox="0 0 96.122482 29.912674"
   version="1.1"
   id="svg5"
   sodipodi:docname="GSLR_sapin.svg"
   inkscape:version="1.2.2 (732a01da63, 2022-12-09)"
   xml:space="preserve"
   xmlns:inkscape="http://www.inkscape.org/namespaces/inkscape"
   xmlns:sodipodi="http://sodipodi.sourceforge.net/DTD/sodipodi-0.dtd"
   xmlns="http://www.w3.org/2000/svg"
   xmlns:svg="http://www.w3.org/2000/svg"><sodipodi:namedview
     id="namedview139"
     pagecolor="#505050"
     bordercolor="#eeeeee"
     borderopacity="1"
     inkscape:showpageshadow="0"
     inkscape:pageopacity="0"
     inkscape:pagecheckerboard="0"
     inkscape:deskcolor="#505050"
     inkscape:document-units="mm"
     showgrid="false"
     inkscape:zoom="0.5522788"
     inkscape:cx="147.57039"
     inkscape:cy="219.09224"
     inkscape:window-width="1920"
     inkscape:window-height="1017"
     inkscape:window-x="-8"
     inkscape:window-y="-8"
     inkscape:window-maximized="1"
     inkscape:current-layer="svg5" /><defs
     id="defs2"><rect
       x="115.88807"
       y="441.47836"
       width="515.97784"
       height="257.52905"
       id="rect4129" /><rect
       x="115.88807"
       y="441.47836"
       width="515.97784"
       height="257.52905"
       id="rect4129-9" /></defs><g
     id="g6970"
     transform="translate(2.7135869,-143.82634)"
     inkscape:export-filename="GSLR_sapin_a.svg"
     inkscape:export-xdpi="96"
     inkscape:export-ydpi="96"><path
       style="fill:#000000;fill-opacity:1;stroke:none;stroke-width:2.36996;stroke-linecap:round;stroke-linejoin:round"
       id="path6704"
       d="m 4.4158449,236.07786 c 2.6524017,-1.8399 5.0241095,-2.21558 8.1709321,-2.86847 1.527124,-0.31684 3.067258,-0.60211 4.621659,-0.72992 2.081458,-0.17116 4.175514,-0.11006 6.26327,-0.16515 14.277988,0.91066 11.064155,2.29861 19.805251,2.91647 20.225373,1.42962 54.662174,-1.31468 54.662174,-1.31468 l -1.72205,-0.51605 c 0,0 -35.291558,3.28433 -55.426115,0.63679 -3.577605,-0.47043 -6.916222,-2.12228 -10.468618,-2.75556 -3.144305,-0.56053 -6.34895,-0.73798 -9.538016,-0.91318 -2.174067,-0.11944 -4.358645,-0.10312 -6.531965,0.0292 -1.609014,0.098 -3.205541,0.36724 -4.790737,0.65994 -3.318267,0.61273 -6.4804183,1.74219 -9.4616273000977,3.30662 L 4.4158449,236.07789 Z"
       sodipodi:nodetypes="csccsccsssccccc" /><text
       xml:space="preserve"
       transform="matrix(0.22497973,0,0,0.22497973,-1.1834793,107.85843)"
       id="text4127"
       style="font-style:normal;font-variant:normal;font-weight:bold;font-stretch:normal;font-size:96px;font-family:'Leelawadee UI';-inkscape-font-specification:'Leelawadee UI Bold';letter-spacing:1.49494px;white-space:pre;shape-inside:url(#rect4129);display:inline;fill:#000000;fill-opacity:1;stroke:#000000;stroke-width:0.687802;stroke-linecap:round;stroke-linejoin:round;stroke-dasharray:none;stroke-opacity:1"><tspan
         x="115.88867"
         y="527.95094"
         id="tspan7175">GSLR</tspan></text><path
       style="fill:none;fill-opacity:0.703911;stroke:#000000;stroke-width:1.85208;stroke-linecap:butt;stroke-linejoin:miter;stroke-dasharray:none;stroke-opacity:1"
       d="m 22.935669,204.87878 c -1.235852,-0.97667 -1.284065,-1.43796 -1.999698,-2.6747 -1.333386,2.94673 -4.668922,6.56444 -7.159313,7.73571 1.387611,0.56918 2.826582,1.00481 4.857305,-0.0982 -1.815502,4.31107 -4.616846,6.03433 -7.45768,7.65394 2.217103,0.67707 4.42676,1.4808 6.770789,0 -1.499623,3.68442 -5.497193,6.48723 -9.1258451,9.42023 3.0972371,-0.50488 6.4978141,0.88607 9.1258451,-2.55132 l 0.09808,5.98885"
       id="path403"
       sodipodi:nodetypes="ccccccccc" /></g><g
     id="layer1"
     transform="translate(-12.696101,17.019868)"><text
       xml:space="preserve"
       transform="matrix(0.26458333,0,0,0.26458333,-2.555171,3.2852199)"
       id="text4127-1"
       style="font-style:normal;font-variant:normal;font-weight:bold;font-stretch:normal;font-size:96px;font-family:'Leelawadee UI';-inkscape-font-specification:'Leelawadee UI Bold';white-space:pre;shape-inside:url(#rect4129-9);display:inline;fill:#000000;fill-opacity:1;stroke:#000000;stroke-width:4;stroke-linecap:round;stroke-linejoin:round;stroke-dasharray:none;stroke-opacity:1"><tspan
         x="115.88867"
         y="527.95094"
         id="tspan7177">GSLR</tspan></text><path
       style="fill:#000000;fill-opacity:1;stroke:none;stroke-width:2.11667;stroke-linecap:round;stroke-linejoin:round"
       id="path6704-2"
       d="m 15.998191,154.2731 c 2.368926,-1.64326 5.128969,-2.6206 7.939474,-3.20371 1.363913,-0.28298 2.739445,-0.53776 4.127719,-0.65191 1.859002,-0.15287 3.729255,-0.0983 5.593882,-0.1475 12.752027,0.81333 25.50043,1.84679 38.277364,2.20822 11.24669,0.31815 25.58286,0.17448 36.88195,0.13 0,0 -0.61059,-0.44294 -0.61059,-0.44294 v 0 c -14.76024,0.15947 -22.05017,0.4295 -36.9941,-0.21858 -13.308322,-0.57715 -18.698548,-1.33717 -31.436145,-2.59936 -2.83863,-0.28128 -5.679094,-0.54373 -8.518639,-0.81559 -1.944621,0.009 -3.892815,-0.0921 -5.833861,0.0261 -1.43705,0.0875 -2.862948,0.32799 -4.278726,0.58941 -2.963627,0.54724 -5.787823,1.55599 -8.450415,2.95322 0,0 3.302087,2.17266 3.302087,2.17266 z" /></g></svg>
